# xmcd
#
# Track frame offsets: 
#        150
#        13136
#        29241
#        48763
#        61937
#        75417
#        98540
#        110671
#        124141
#        138588
#        154113
#        169269
#        183516
#        199196
#        211787
#        229343
#
# Disc length: 3275 seconds
#
# Revision: 2
# Processed by: cddbd v1.5.2PL0 Copyright (c) Steve Scherf et al.
# Submitted via: ExactAudioCopyFreeDBPlugin 1.0
#
DISCID=db0cc910
DTITLE=Kenny Rogers - 1994 - Mijn Mooiste Songs
DYEAR=1994
DGENRE=Country
TTITLE0=Rubty Don't Take Your Love To Town
TTITLE1=Green Green Grass Of Home
TTITLE2=Sweet Music Man
TTITLE3=Love Or Something Like It
TTITLE4=You and Me
TTITLE5=King Of Oak Street
TTITLE6=Reuben James
TTITLE7=Puttin' In Overtime At Home
TTITLE8=Daytime Freinds
TTITLE9=Let It Be Me
TTITLE10=Buried Treasures
TTITLE11=The Son Of Hickory Holler's Tramp
TTITLE12=I Wasn't Man Enough
TTITLE13=Mother Country Music
TTITLE14=Lay Down Beside Me
TTITLE15=Lucille
EXTD=
EXTT0=
EXTT1=
EXTT2=
EXTT3=
EXTT4=
EXTT5=
EXTT6=
EXTT7=
EXTT8=
EXTT9=
EXTT10=
EXTT11=
EXTT12=
EXTT13=
EXTT14=
EXTT15=
PLAYORDER=
